<?xml version="1.0" encoding="UTF-8"?>
<svg id="Layer_1" data-name="Layer 1" xmlns="http://www.w3.org/2000/svg" width="226.14" height="277.67" viewBox="0 0 226.14 277.67">
  <defs>
    <style>
      .cls-1 {
        fill: #185933;
      }

      .cls-1, .cls-2 {
        stroke-width: 0px;
      }

      .cls-3 {
        fill: #3a3a3a;
        font-family: BerlinSansFB-Reg, 'Berlin Sans FB';
        font-size: 11.89px;
      }

      .cls-2 {
        fill: #d9c29a;
      }
    </style>
  </defs>
  <path class="cls-1" d="M107.71,98.23c6.1-.06,12.21.17,18.3-.37,3.99-.35,7.34.95,10.5,3.21,11.41,8.14,22.84,16.24,34.3,24.31,1.48,1.04,1.54,1.88.38,3.22-3.76,4.37-8.66,5.88-14.19,5.86-3.01-.01-6.03-.25-9.04-.26-21.33-.06-42.66-.07-63.99-.13-1.74,0-3.48-.21-5.22-.28-1.27-.05-1.46-.66-1.02-1.72,4.5-10.83,9.01-21.67,13.48-32.52.49-1.19,1.35-1.34,2.41-1.34,4.7,0,9.39,0,14.09,0Z"/>
  <path class="cls-1" d="M113.72,0c3.55.1,6.58,1.58,9.45,3.56,9,6.21,18.03,12.37,27.03,18.59,5.68,3.93,11.33,7.91,16.99,11.88,1.91,1.34,1.89,1.54-.08,2.64-9.08,5.07-17.85,10.67-26.67,16.17-1.26.79-2.13.73-3.25-.04-7.62-5.25-15.27-10.48-22.9-15.71-9.41-6.45-18.8-12.9-28.23-19.33-.99-.67-1.19-1.11-.1-1.89,6.26-4.51,12.48-9.07,19.03-13.15C107.64,1.07,110.5-.06,113.72,0Z"/>
  <path class="cls-1" d="M174.68,78.09c0,8.92.09,17.84-.04,26.75-.07,4.68-.28,9.36,0,14.05.02.4.09.88-.29,1.11-.59.35-1-.18-1.42-.47-8.63-6.02-17.07-12.35-25.96-17.97-4.64-2.93-6.16-6.28-5.86-11.61.47-8.15.11-16.35.09-24.53,0-.87.13-1.79-.08-2.61-1.03-3.99.89-6.25,4.2-8.05,8.72-4.74,17.01-10.21,25.53-15.29,2.52-1.5,2.81-1.38,3.14,1.45.53,4.6.72,9.21.71,13.84-.02,7.78,0,15.56,0,23.33h-.03Z"/>
  <path class="cls-2" d="M111.45,94.22c-4.59-.13-11.16.27-17.72-.34-2.73-.25-3.74-1-4.11-3.66-.15-1.06-.25-2.13-.25-3.2-.02-8.18.05-16.36-.04-24.54-.03-2.54.92-4.36,2.89-5.83,5.43-4.04,10.95-7.95,16.7-11.55,1.93-1.21,3.78-1.47,5.82-.17,6.33,4.03,12.59,8.18,18.6,12.68,1.28.96,1.88,2.25,1.88,3.82,0,8.98,0,17.97,0,26.95,0,4.33-2.75,5.8-6.11,5.83-5.23.06-10.46.02-17.67.02Z"/>
  <path class="cls-1" d="M85.35,80.15c0,3.96-.17,7.93.04,11.88.26,4.91-1,9.36-2.96,13.8-3.7,8.41-7.12,16.94-10.67,25.42-1.2,2.88-1.62,3.11-4.72,2.72-1.39-.17-2.83-.19-4.18-.55-6.28-1.71-9.94-5.88-10.93-12.28-.62-3.99-.5-8.01-.28-12.05.38-6.9.25-13.82.07-20.73-.07-2.69.72-4.43,3.04-5.98,9.6-6.4,19.06-13.01,28.58-19.54.43-.3.86-.83,1.41-.6.67.28.55,1.02.55,1.6.01,5.44,0,10.87,0,16.31h.03Z"/>
  <path class="cls-1" d="M51.5,52.35c.13-2.82.2-5.37.39-7.91.32-4.18,2.17-7.66,5.53-10.1,5.54-4.01,11.23-7.82,16.87-11.69,3.65-2.51,7.29-2.29,10.86.18,6.62,4.58,13.21,9.2,19.85,13.76,3.38,2.32,3.39,2.24.07,4.58-16.65,11.78-33.4,23.42-50.42,34.67-.73.48-1.45,1.61-2.4,1.03-.78-.47-.34-1.62-.35-2.46-.12-7.45.13-14.9-.4-22.06Z"/>
  <path class="cls-1" d="M87.33,183.17c-.49-7.61-.31-16.07-1.24-24.48-.15-1.39,2.03-5.29,3.29-5.9,1.1-.54,1.12.25,1.07.96-.43,6.7-.19,13.41-.27,20.11-.06,4.62-.37,9.26.36,13.86.65,4.11,2.7,5.89,6.77,5.89,5.97,0,11.93-.21,17.87-.8.4-.04.8-.1,1.19-.18,4.64-.92,6.01-4.96,2.92-8.64-2.14-2.55-2.26-5.53-.34-8.19.99-1.37,2.05-1.38,2.72.13,2.11,4.76,3.18,9.72,1.78,14.88-.82,3.02-2.89,5.09-5.8,6.26-2.39.97-4.89,1.42-7.45,1.59-5.34.35-10.68,1.07-16.04.25-2.4-.37-4.57-1.13-5.65-3.6-.72-1.63-1.52-1.26-2.48-.17-3.54,4-7.87,4.81-12.77,2.98-1.13-.42-1.79-.1-2.27.9-1.11,2.31-2.67,4.34-4.21,6.37-5.03,6.66-13.29,5.52-18.85,2.13-.4-.24-.83-.63-.66-1.14.23-.65.87-.49,1.39-.43,3.43.38,6.83.24,10.17-.74,4.24-1.25,7.56-3.67,9.72-7.6.82-1.5.5-2.42-1.19-2.82-1.23-.29-2.54-.25-3.77-.53-2.68-.6-3.4-2.13-2.28-4.58.67-1.48,1.56-2.81,2.74-3.94,1.68-1.61,2.6-1.63,4.3-.07,1.74,1.59,3.22,3.42,4.6,5.32,1.5,2.06,3.32,2.88,5.91,2.39,2.24-.42,4.49-.76,6.62-1.63,1.26-.52,1.92-1.34,1.87-2.76-.06-1.67-.01-3.35-.01-5.85Z"/>
  <path class="cls-1" d="M225.74,247.95c0,2.08.07,4.16-.03,6.23-.04.85.19,2.2-1.07,2.3-1.44.11-3.19.86-4.27-.74-.61-.9-1.13-.92-1.99-.55-5.07,2.19-9.86,1.38-13.88-2.15-4.4-3.86-5.57-9.04-4.29-14.68,1.99-8.77,8.45-13.08,16.71-11.26,4.23.93,6.76,3.87,8.54,7.59.49,1.02.17,1.68-1.06,1.74-2.41.12-4.62.27-6.39-2.19-1.96-2.71-6.22-2.6-8.83-.25-4.15,3.74-3.96,12.38.36,15.96,3,2.5,8.71.83,9.92-2.86.27-.83.09-1.33-.75-1.48-.58-.11-1.2-.15-1.79-.11-2.99.22-3.2-.01-3.2-2.98,0-1.48.46-2.25,2.08-2.21,2.75.06,5.5.03,8.25,0,1.27-.02,1.84.56,1.83,1.81-.02,1.94,0,3.89,0,5.83-.04,0-.08,0-.12,0Z"/>
  <path class="cls-1" d="M86.11,241.58c0-3.96.01-7.91,0-11.87,0-1.21.25-2.17,1.72-2.17,4.69,0,9.39-.42,14.05.43,4.68.86,7.41,4.09,7.21,8.47-.08,1.75-.65,3.32-2.11,4.37-.92.66-1.16,1.4-.39,2.14,1.37,1.32,1.43,2.95,1.41,4.65-.03,2.08-.08,4.16-.05,6.24.02,1.43-.59,1.84-1.98,1.73-4.31-.35-4.31-.31-3.91-4.58.05-.53.07-1.07.07-1.61.02-3.68-.75-4.51-4.47-4.5-6.37.02-5.36-.79-5.49,5.38-.02.74,0,1.48,0,2.21,0,2.98-2.56,4.36-5.26,2.87-.9-.5-.8-1.32-.81-2.11-.02-3.89,0-7.78,0-11.67h.01ZM96.31,239.61c1.6-.01,3.21-.02,4.75-.56,1.53-.54,1.54-1.83,1.55-3.13,0-1.15-.44-2.04-1.61-2.18-2.45-.29-4.9-.66-7.38-.48-.75.06-1.19.42-1.39,1.19-.97,3.85.03,5.21,3.88,5.16.07,0,.13,0,.2,0Z"/>
  <path class="cls-1" d="M190.12,242.35c.02,1.07-.1,2.53-.38,3.99-1.41,7.41-8.04,11.57-15.48,10-10.25-2.17-11.89-10.81-10.35-18.23.4-1.92,1.11-3.74,2.03-5.45,2.16-4.03,6.85-6.33,11.76-5.84,8.06.8,12.43,6.12,12.42,15.54ZM183.94,241.77c.04-1.49-.1-2.95-.54-4.37-.85-2.78-2.66-4.39-5.19-4.61-3.82-.32-6.22.81-7.5,3.7-1.51,3.39-1.66,6.89-.38,10.37,1.45,3.95,5.41,5.49,9.16,3.65,3.65-1.8,4.44-5.08,4.46-8.74Z"/>
  <path class="cls-1" d="M165.08,193.23c4.62-.05,9.25.48,13.84-.38.86-.16,1.72-.31,2.55-.55,3.65-1.04,4.76-4.09,2.65-7.3-.26-.39-.59-.73-.9-1.08-2.27-2.63-2.34-5.31-.25-8.14.9-1.23,1.89-1.18,2.52.03,2.64,5.06,3.62,10.37,1.7,15.9-1.1,3.16-3.71,4.7-6.85,5.23-5.55.94-11.12,1.72-16.78,1.61-3.88-.08-7.77-.03-11.65.35-2.61.25-4.72,1.21-6.47,3.2-2.12,2.42-3.81,5.18-6.1,7.47-4.12,4.11-11.87,5.7-17.21,3.45-.42-.18-.99-.27-.99-.86,0-.67.6-.86,1.11-.97.91-.2,1.85-.34,2.78-.43,8.04-.75,14.15-5,18.76-11.21,3.39-4.56,7.49-6.63,13.04-6.35,2.74.14,5.5.02,8.24.02Z"/>
  <path class="cls-1" d="M49.17,255.43c-2.46.99-3.32-.5-3.75-2.73-.41-2.16-1.69-3.24-4-2.96-1.06.13-2.14.02-3.22.01-3.34,0-3.68.07-4.53,3.28-.56,2.11-1.62,2.53-3.59,2.39-3.63-.26-3.69-.17-2.47-3.6,2.66-7.45,5.41-14.87,8.06-22.33.51-1.42,1.33-1.98,2.82-2,4.27-.08,4.38-.16,5.85,3.87,2.69,7.37,5.23,14.79,7.85,22.19.5,1.42.34,2.26-1.45,1.99-.46-.07-.93-.07-1.57-.11ZM39.75,244.72c1.02-.21,3.09.75,2.32-1.92-.55-1.93-1.09-3.86-1.67-5.78-.13-.42-.25-1-.85-.96-.48.03-.53.55-.65.91-.51,1.52-.98,3.05-1.49,4.58-1.03,3.12-1.01,3.15,2.33,3.17Z"/>
  <path class="cls-1" d="M1.53,241.48c0-3.82.04-7.65-.02-11.47-.02-1.52.53-2.11,2.09-2.22,4.02-.29,8.04-.63,12.04,0,4.25.68,7.17,4.9,6.91,9.73-.24,4.53-3.44,7.88-7.88,8.14-1.67.1-3.35.06-5.03,0-1.44-.06-2.1.49-2.05,1.98.07,1.88-.06,3.76.04,5.63.08,1.6-.6,2.09-2.12,2.13-4,.1-4,.15-4-3.86,0-3.35,0-6.71,0-10.06h.02ZM7.65,237c.27.9-.88,2.91,1.41,3.2,2.12.27,4.27,0,6.33-.63,1.61-.5,1.65-1.96,1.71-3.29.05-1.22-.6-2-1.78-2.34-2.01-.58-4.05-.82-6.14-.74-.97.04-1.51.45-1.52,1.45-.01.67,0,1.34,0,2.37Z"/>
  <path class="cls-1" d="M21.83,170.15c-2.56,1.4-5.28,2.14-7.89,3.12-2.2.82-4.39,1.65-6.42,2.87-3.87,2.32-4.81,5.91-4.3,10.07.43,3.51,2.69,5.65,5.83,6.8,8.58,3.15,17.06,2.51,25.17-1.44,5.92-2.89,7.48-6.53,6.54-13.02-.3-2.05-.38-4.14-.61-6.2-.07-.67.26-1.76-.72-1.81-.79-.04-.95,1-1.13,1.7-.78,2.98-1.52,5.98-2.32,8.96-.16.6-.08,1.38-.86,1.64-.39-.09-.41-.36-.37-.63,1.03-6.96,3.44-13.5,6.07-19.97.22-.55.52-1.22,1.21-1.19.74.03.63.75.67,1.25.43,5.21,1.05,10.41.74,15.65-.19,3.15-.57,6.33-1.95,9.19-3.87,8.02-10.7,11.77-19.27,12.53-4.27.38-8.58.29-12.75-1.08-5.86-1.92-8.93-5.52-9.43-11.2-.49-5.55,2.5-11.14,7.52-13.6,4.11-2.02,8.59-3.04,13-4.18.37-.1.8-.17,1.26.53Z"/>
  <path class="cls-1" d="M198.5,169.54c0,4.43,0,8.85,0,13.28,0,.67-.02,1.35.06,2.01.97,7.58,3.11,8.81,9.35,8.87,3.72.04,7.35-.52,10.96-1.33,4.31-.97,5.42-3.61,3.19-7.43-.24-.4-.51-.79-.8-1.15-2.24-2.71-2.22-5.65,0-8.43.8-1,1.49-.83,2.06.07.57.9,1.01,1.89,1.4,2.89,1.31,3.31,1.53,6.78,1.39,10.28-.16,4.05-2.57,6.62-6.02,8.09-5.69,2.42-11.69,2.86-17.77,1.85-3.48-.57-5.64-2.61-6.32-6.13-.41-2.11-.75-4.23-.76-6.38-.05-9.32-.06-18.65-.08-27.97,0-1.56.13-3.1,1.2-4.36.39-.46.85-1.01,1.51-.81.73.23.58.97.58,1.56,0,5.03,0,10.06,0,15.09.01,0,.02,0,.04,0Z"/>
  <path class="cls-1" d="M65.95,227.5c2.95,0,5.9-.03,8.85,0,2.25.03,2.48.32,2.47,2.85,0,2.93-.16,3.13-2.55,3.19-.94.02-1.89.13-2.81,0-2.14-.3-2.9.73-2.91,2.71-.02,5.5-.07,10.99-.13,16.49-.02,2.53-.18,2.66-2.8,2.66-3.02,0-3.25-.17-3.26-2.69-.02-5.63-.07-11.26,0-16.89.03-1.89-.61-2.74-2.55-2.6-1.27.09-2.55.03-3.82-.01-2.08-.07-1.73-1.65-1.74-2.95-.02-1.29-.13-2.7,1.8-2.7,3.15,0,6.3,0,9.45,0,0-.02,0-.04,0-.06Z"/>
  <path class="cls-1" d="M142.14,238.85c0,3.02.05,6.04-.02,9.05-.03,1.57.62,2.15,2.15,2.12,3.08-.05,6.17.02,9.25,0,1.39,0,2.42.31,2.26,2.01-.14,1.49.57,3.31-2.07,3.48-5.23.33-10.45.17-15.68.11-1.52-.02-2.05-.85-2.04-2.34.05-7.78.02-15.55.06-23.33.01-2.3.32-2.49,3.05-2.46,2.79.03,3.01.2,3.03,2.49.02,2.95,0,5.9,0,8.85Z"/>
  <path class="cls-1" d="M125.61,241.52c0,3.95-.07,7.91.03,11.86.06,2.29-1.5,2.26-2.95,2.25-1.48,0-3.23.21-3.21-2.21.05-7.91.04-15.81.02-23.72,0-1.52.64-2.24,2.17-2.18.47.02.94.03,1.41,0,1.86-.16,2.66.58,2.6,2.55-.11,3.82-.03,7.64-.03,11.46h-.03Z"/>
  <path class="cls-1" d="M52.28,152.75c-1.37-.07-1.91.83-2.63,1.34-5.85,4.21-12.3,6.76-19.53,7.19-1.39.08-2.8-.09-4.21-.17-.41-.02-.88-.11-.93-.58-.05-.48.4-.66.8-.74.98-.21,1.97-.42,2.96-.57,9.08-1.39,16.8-5.64,23.9-11.25,1.02-.81,2.51-2.64,3.07-2.08.98.98-.58,2.43-.99,3.7-1.42,4.4-2.83,8.8-4.25,13.2-.1.32-.18.65-.3.96-.2.47-.26,1.25-.94,1.07-.76-.2-.61-1-.43-1.55.71-2.23,1.5-4.44,2.24-6.67.42-1.24.81-2.49,1.25-3.85Z"/>
  <path class="cls-1" d="M119.86,207.74c-.78,1.18-2.04,2.3-3.44,3.12-1.09.64-1.35-.71-1.85-1.33-1.74-2.17-2.6-2.23-4.7-.27-1.87,1.74-2.05,1.73-3.95-.36-1.47-1.61-1.43-2.69.13-4.08,2.02-1.81,2.97-1.74,4.52.31,1.08,1.44,2.06,1.38,4.01-.32.75-.65,1.44-1.19,2.49-.65.98.5,2.81,2.58,2.79,3.59Z"/>
  <path class="cls-1" d="M24.14,154.59c-1.22-.62-1.92-1.87-2.78-2.94-.53-.66-.35-1.36.08-2.04,1.65-2.61,2.74-2.76,4.95-.64,1.7,1.63,2.77,1.67,4.42-.02,1.04-1.06,1.84-1.87,3.23-.37,2.16,2.33,2.3,2.68.69,4.41-2.04,2.2-2.31,2.2-4.27-.03-1.61-1.82-2.81-1.81-4.47.03-.52.58-.82,1.41-1.84,1.6Z"/>
  <path class="cls-1" d="M185.14,160.52c1.09.05,3.32,2.77,3.25,3.96-.05.93-2.44,3.09-3.38,3.07-1-.03-3.4-2.57-3.41-3.6,0-1.11,2.44-3.47,3.54-3.43Z"/>
  <path class="cls-1" d="M214.74,208.34c1.21-.03,3.19,2.22,3.23,3.68.03.97-2.28,3.24-3.25,3.19-.7-.03-3.33-3.01-3.33-3.76,0-1.03,2.21-3.08,3.35-3.11Z"/>
  <path class="cls-1" d="M177.15,160.31c1.31-.05,2.97,1.66,3.12,3.2.1,1.04-2.29,3.52-3.4,3.54-1.12.02-2.87-1.86-2.96-3.17-.1-1.49,1.74-3.51,3.24-3.57Z"/>
  <path class="cls-1" d="M212.98,205.76c-.04.97-2.16,3.1-3.09,3.11-.9,0-3.28-2.7-3.25-3.7.03-1.32,2.05-3.09,3.5-3.05,1.14.03,2.9,2.28,2.85,3.65Z"/>
  <path class="cls-1" d="M219.51,202.13c1.35-.04,3.11,1.98,3.15,3.62.02,1.02-1.6,2.98-2.53,3.06-1.05.09-3.71-2.57-3.76-3.76-.05-1.15,1.81-2.87,3.14-2.91Z"/>
  <path class="cls-1" d="M28.38,141.4c1-.04,3.02,2.26,3.12,3.54.05.72-2.3,3.17-3.02,3.13-.65-.03-3.3-2.83-3.33-3.52-.04-1.17,1.93-3.11,3.23-3.16Z"/>
  <text class="cls-3" transform="translate(150.89 275.26)"><tspan x="0" y="0">GROUPE CDG</tspan></text>
</svg>